<svg width="56" height="56" viewBox="0 0 56 56" fill="none" xmlns="http://www.w3.org/2000/svg">
<path d="M24.1738 1.53333C25.3688 0.962674 26.6762 0.666504 28.0005 0.666504C29.3247 0.666504 30.6322 0.962674 31.8271 1.53333C32.8778 2.03733 33.8405 2.85866 35.1871 4.00799L35.3978 4.18399C36.6778 5.27733 37.9018 5.79466 39.6111 5.93066L39.8831 5.95199C41.6485 6.09333 42.9098 6.19199 44.0085 6.58133C45.2572 7.02247 46.3913 7.73731 47.328 8.67351C48.2647 9.6097 48.9801 10.7435 49.4218 11.992C49.8085 13.0907 49.9072 14.352 50.0485 16.1173L50.0698 16.3893C50.2058 18.0987 50.7258 19.3227 51.8165 20.6027L51.9925 20.8107C53.1418 22.16 53.9658 23.1227 54.4671 24.1733C55.0378 25.3683 55.334 26.6758 55.334 28C55.334 29.3242 55.0378 30.6317 54.4671 31.8267C53.9632 32.8773 53.1418 33.84 51.9925 35.1867L51.8165 35.3973C50.7018 36.704 50.2031 37.9333 50.0698 39.6107L50.0485 39.8827C49.9072 41.648 49.8085 42.9093 49.4192 44.008C48.978 45.2567 48.2632 46.3909 47.327 47.3275C46.3908 48.2642 45.2569 48.9796 44.0085 49.4213C42.9098 49.808 41.6485 49.9067 39.8831 50.048L39.6111 50.0693C37.9018 50.2053 36.6778 50.7253 35.3978 51.816L35.1871 51.992C33.8405 53.1413 32.8778 53.9653 31.8271 54.4667C30.6322 55.0373 29.3247 55.3335 28.0005 55.3335C26.6762 55.3335 25.3688 55.0373 24.1738 54.4667C23.1231 53.9627 22.1605 53.1413 20.8138 51.992L20.6031 51.816C19.4405 50.7679 17.953 50.1513 16.3898 50.0693L16.1178 50.048C14.3525 49.9067 13.0911 49.808 11.9925 49.4187C10.7438 48.9775 9.60962 48.2627 8.67296 47.3265C7.73631 46.3903 7.02091 45.2565 6.57915 44.008C6.19248 42.9093 6.09381 41.648 5.95248 39.8827L5.93115 39.6107C5.84919 38.0475 5.23253 36.56 4.18448 35.3973L4.00848 35.1867C2.85915 33.84 2.03515 32.8773 1.53381 31.8267C0.963162 30.6317 0.666992 29.3242 0.666992 28C0.666992 26.6758 0.963162 25.3683 1.53381 24.1733C2.03781 23.1227 2.85915 22.16 4.00848 20.8133L4.18448 20.6027C5.23253 19.44 5.84919 17.9525 5.93115 16.3893L5.95248 16.1173C6.09381 14.352 6.19248 13.0907 6.58181 11.992C7.02296 10.7433 7.7378 9.60913 8.674 8.67248C9.61019 7.73582 10.744 7.02042 11.9925 6.57866C13.0911 6.19199 14.3525 6.09333 16.1178 5.95199L16.3898 5.93066C17.953 5.8487 19.4405 5.23204 20.6031 4.18399L20.8111 4.00799C22.1605 2.85866 23.1231 2.03466 24.1738 1.53333ZM32.0005 17.3333C32.0007 16.9644 31.8988 16.6025 31.7061 16.2879C31.5134 15.9732 31.2374 15.718 30.9086 15.5505C30.5799 15.3829 30.2112 15.3096 29.8434 15.3386C29.4756 15.3675 29.1229 15.4977 28.8245 15.7147L21.4911 21.048C21.0619 21.3599 20.774 21.8295 20.691 22.3536C20.608 22.8777 20.7366 23.4134 21.0485 23.8427C21.3604 24.272 21.83 24.5598 22.3541 24.6428C22.8782 24.7258 23.4139 24.5972 23.8431 24.2853L28.0031 21.2613V38.6667C28.0031 39.1971 28.2139 39.7058 28.5889 40.0809C28.964 40.4559 29.4727 40.6667 30.0031 40.6667C30.5336 40.6667 31.0423 40.4559 31.4174 40.0809C31.7924 39.7058 32.0031 39.1971 32.0031 38.6667L32.0005 17.3333Z" fill="#0E74D8"/>
</svg>
