<svg width="56" height="56" viewBox="0 0 56 56" fill="none" xmlns="http://www.w3.org/2000/svg">
<path d="M24.1738 1.53333C25.3688 0.962674 26.6762 0.666504 28.0005 0.666504C29.3247 0.666504 30.6322 0.962674 31.8271 1.53333C32.8778 2.03733 33.8405 2.85866 35.1871 4.00799L35.3978 4.18399C36.6778 5.27733 37.9018 5.79466 39.6111 5.93066L39.8831 5.95199C41.6485 6.09333 42.9098 6.19199 44.0085 6.58133C45.2572 7.02247 46.3913 7.73731 47.328 8.67351C48.2647 9.6097 48.9801 10.7435 49.4218 11.992C49.8085 13.0907 49.9071 14.352 50.0485 16.1173L50.0698 16.3893C50.2058 18.0987 50.7258 19.3227 51.8165 20.6027L51.9925 20.8107C53.1418 22.16 53.9658 23.1227 54.4671 24.1733C55.0378 25.3683 55.334 26.6758 55.334 28C55.334 29.3242 55.0378 30.6317 54.4671 31.8267C53.9631 32.8773 53.1418 33.84 51.9925 35.1867L51.8165 35.3973C50.7018 36.704 50.2031 37.9333 50.0698 39.6107L50.0485 39.8827C49.9071 41.648 49.8085 42.9093 49.4191 44.008C48.978 45.2567 48.2632 46.3909 47.327 47.3275C46.3908 48.2642 45.2569 48.9796 44.0085 49.4213C42.9098 49.808 41.6485 49.9067 39.8831 50.048L39.6111 50.0693C37.9018 50.2053 36.6778 50.7253 35.3978 51.816L35.1871 51.992C33.8405 53.1413 32.8778 53.9653 31.8271 54.4667C30.6322 55.0373 29.3247 55.3335 28.0005 55.3335C26.6762 55.3335 25.3688 55.0373 24.1738 54.4667C23.1231 53.9627 22.1605 53.1413 20.8138 51.992L20.6031 51.816C19.4405 50.7679 17.953 50.1513 16.3898 50.0693L16.1178 50.048C14.3525 49.9067 13.0911 49.808 11.9925 49.4187C10.7438 48.9775 9.60962 48.2627 8.67296 47.3265C7.73631 46.3903 7.02091 45.2564 6.57915 44.008C6.19248 42.9093 6.09381 41.648 5.95248 39.8827L5.93115 39.6107C5.84919 38.0475 5.23253 36.56 4.18448 35.3973L4.00848 35.1867C2.85915 33.84 2.03515 32.8773 1.53381 31.8267C0.963162 30.6317 0.666992 29.3242 0.666992 28C0.666992 26.6758 0.963162 25.3683 1.53381 24.1733C2.03781 23.1227 2.85915 22.16 4.00848 20.8133L4.18448 20.6027C5.23253 19.44 5.84919 17.9525 5.93115 16.3893L5.95248 16.1173C6.09381 14.352 6.19248 13.0907 6.58181 11.992C7.02296 10.7433 7.7378 9.60913 8.67399 8.67247C9.61019 7.73582 10.744 7.02042 11.9925 6.57866C13.0911 6.19199 14.3525 6.09333 16.1178 5.95199L16.3898 5.93066C17.953 5.8487 19.4405 5.23204 20.6031 4.18399L20.8111 4.00799C22.1605 2.85866 23.1231 2.03466 24.1738 1.53333ZM23.3338 23.5653C23.3338 22.0213 23.8858 21.016 24.5951 20.3787C25.3391 19.7093 26.3818 19.3333 27.4885 19.3333C28.5951 19.3333 29.6378 19.7067 30.3818 20.3787C31.0885 21.016 31.6405 22.0213 31.6405 23.5653C31.6405 25.864 30.1365 28.288 27.6671 30.776C25.8218 32.6373 23.7098 34.2773 21.8138 35.7467C21.2094 36.216 20.6316 36.6693 20.0805 37.1067C19.7573 37.3659 19.5226 37.7192 19.4089 38.1176C19.2951 38.5161 19.3079 38.94 19.4455 39.3308C19.5831 39.7217 19.8387 40.0601 20.177 40.2994C20.5152 40.5387 20.9195 40.667 21.3338 40.6667H34.6671C35.1976 40.6667 35.7063 40.4559 36.0814 40.0809C36.4564 39.7058 36.6671 39.1971 36.6671 38.6667C36.6671 38.1362 36.4564 37.6275 36.0814 37.2524C35.7063 36.8774 35.1976 36.6667 34.6671 36.6667H27.0938C28.2485 35.7147 29.4298 34.68 30.5071 33.592C33.1258 30.952 35.6405 27.536 35.6405 23.5653C35.6405 20.952 34.6538 18.8453 33.0565 17.4053C31.4911 15.9973 29.4591 15.3333 27.4885 15.3333C25.5178 15.3333 23.4831 15.9973 21.9178 17.4053C20.3178 18.8453 19.3338 20.952 19.3338 23.5653C19.3338 24.0958 19.5445 24.6045 19.9196 24.9795C20.2947 25.3546 20.8034 25.5653 21.3338 25.5653C21.8642 25.5653 22.373 25.3546 22.748 24.9795C23.1231 24.6045 23.3338 24.0958 23.3338 23.5653Z" fill="#0E74D8"/>
</svg>
