<svg width="56" height="56" viewBox="0 0 56 56" fill="none" xmlns="http://www.w3.org/2000/svg">
<path d="M24.1738 1.53333C25.3688 0.962674 26.6762 0.666504 28.0005 0.666504C29.3247 0.666504 30.6322 0.962674 31.8271 1.53333C32.8778 2.03733 33.8405 2.85866 35.1871 4.00799L35.3978 4.18399C36.6778 5.27733 37.9018 5.79466 39.6111 5.93066L39.8831 5.95199C41.6485 6.09333 42.9098 6.19199 44.0085 6.58133C45.2572 7.02247 46.3913 7.73731 47.328 8.67351C48.2647 9.6097 48.9801 10.7435 49.4218 11.992C49.8085 13.0907 49.9071 14.352 50.0485 16.1173L50.0698 16.3893C50.2058 18.0987 50.7258 19.3227 51.8165 20.6027L51.9925 20.8107C53.1418 22.16 53.9658 23.1227 54.4671 24.1733C55.0378 25.3683 55.334 26.6758 55.334 28C55.334 29.3242 55.0378 30.6317 54.4671 31.8267C53.9631 32.8773 53.1418 33.84 51.9925 35.1867L51.8165 35.3973C50.7018 36.704 50.2031 37.9333 50.0698 39.6107L50.0485 39.8827C49.9071 41.648 49.8085 42.9093 49.4191 44.008C48.978 45.2567 48.2632 46.3909 47.327 47.3275C46.3908 48.2642 45.2569 48.9796 44.0085 49.4213C42.9098 49.808 41.6485 49.9067 39.8831 50.048L39.6111 50.0693C37.9018 50.2053 36.6778 50.7253 35.3978 51.816L35.1871 51.992C33.8405 53.1413 32.8778 53.9653 31.8271 54.4667C30.6322 55.0373 29.3247 55.3335 28.0005 55.3335C26.6762 55.3335 25.3688 55.0373 24.1738 54.4667C23.1231 53.9627 22.1605 53.1413 20.8138 51.992L20.6031 51.816C19.4405 50.7679 17.953 50.1513 16.3898 50.0693L16.1178 50.048C14.3525 49.9067 13.0911 49.808 11.9925 49.4187C10.7438 48.9775 9.60962 48.2627 8.67296 47.3265C7.73631 46.3903 7.02091 45.2564 6.57915 44.008C6.19248 42.9093 6.09381 41.648 5.95248 39.8827L5.93115 39.6107C5.84919 38.0475 5.23253 36.56 4.18448 35.3973L4.00848 35.1867C2.85915 33.84 2.03515 32.8773 1.53381 31.8267C0.963162 30.6317 0.666992 29.3242 0.666992 28C0.666992 26.6758 0.963162 25.3683 1.53381 24.1733C2.03781 23.1227 2.85915 22.16 4.00848 20.8133L4.18448 20.6027C5.23253 19.44 5.84919 17.9525 5.93115 16.3893L5.95248 16.1173C6.09381 14.352 6.19248 13.0907 6.58181 11.992C7.02296 10.7433 7.7378 9.60913 8.67399 8.67247C9.61019 7.73582 10.744 7.02042 11.9925 6.57866C13.0911 6.19199 14.3525 6.09333 16.1178 5.95199L16.3898 5.93066C17.953 5.8487 19.4405 5.23204 20.6031 4.18399L20.8111 4.00799C22.1605 2.85866 23.1231 2.03466 24.1738 1.53333ZM36.6671 22.6533C36.6671 20.1573 35.4591 18.248 33.7418 17.032C32.0831 15.856 29.9871 15.3333 28.0005 15.3333C26.0138 15.3333 23.9178 15.856 22.2591 17.032C20.5445 18.248 19.3338 20.1573 19.3338 22.6507C19.3338 23.1811 19.5445 23.6898 19.9196 24.0649C20.2947 24.4399 20.8034 24.6507 21.3338 24.6507C21.8642 24.6507 22.373 24.4399 22.748 24.0649C23.1231 23.6898 23.3338 23.1811 23.3338 22.6507C23.3338 21.6 23.7925 20.8507 24.5738 20.2933C25.4165 19.696 26.6538 19.3333 28.0005 19.3333C29.3471 19.3333 30.5845 19.696 31.4271 20.2933C32.2058 20.8453 32.6618 21.5893 32.6671 22.632L32.6618 22.704C32.6538 22.784 32.6405 22.9173 32.6058 23.08C32.5186 23.4995 32.3599 23.901 32.1365 24.2667C31.6938 24.9787 30.6911 26 28.0005 26C27.47 26 26.9613 26.2107 26.5863 26.5858C26.2112 26.9609 26.0005 27.4696 26.0005 28C26.0005 28.5304 26.2112 29.0391 26.5863 29.4142C26.9613 29.7893 27.47 30 28.0005 30C30.6938 30 31.6938 31.0213 32.1365 31.7333C32.4381 32.2295 32.6198 32.7892 32.6671 33.368C32.6618 34.408 32.2058 35.1547 31.4271 35.7067C30.5845 36.304 29.3471 36.6667 28.0005 36.6667C26.6538 36.6667 25.4165 36.304 24.5738 35.7067C23.7925 35.1493 23.3338 34.4 23.3338 33.3493C23.3338 32.8189 23.1231 32.3102 22.748 31.9351C22.373 31.56 21.8642 31.3493 21.3338 31.3493C20.8034 31.3493 20.2947 31.56 19.9196 31.9351C19.5445 32.3102 19.3338 32.8189 19.3338 33.3493C19.3338 35.8427 20.5445 37.7493 22.2591 38.968C23.9178 40.144 26.0138 40.6667 28.0005 40.6667C29.9871 40.6667 32.0831 40.144 33.7418 38.968C35.4565 37.752 36.6671 35.8427 36.6671 33.3493V33.344C36.6129 32.0247 36.2219 30.7413 35.5311 29.616C35.154 29.0121 34.6894 28.4675 34.1525 28C34.7151 27.5093 35.1711 26.96 35.5311 26.384C36.2219 25.2587 36.6129 23.9753 36.6671 22.656V22.6533Z" fill="#0E74D8"/>
</svg>
