<svg width="42" height="42" viewBox="0 0 42 42" fill="none" xmlns="http://www.w3.org/2000/svg">
<path d="M28 0C28.5304 0 29.0391 0.210714 29.4142 0.585786C29.7893 0.960859 30 1.46957 30 2V4H40V16H35.962L41.454 31.09C41.8454 32.1052 42.0257 33.1895 41.9837 34.2767C41.9418 35.364 41.6785 36.4312 41.2099 37.4132C40.7414 38.3951 40.0775 39.2712 39.2588 39.9879C38.4401 40.7045 37.4838 41.2466 36.4485 41.581C35.4131 41.9154 34.3204 42.0351 33.2372 41.9327C32.154 41.8304 31.1031 41.5082 30.1487 40.9858C29.1942 40.4634 28.3564 39.7518 27.6864 38.8945C27.0164 38.0373 26.5283 37.0523 26.252 36H17.748C17.2934 37.7553 16.2564 39.3043 14.8066 40.3932C13.3568 41.4822 11.5802 42.0466 9.76778 41.9941C7.95533 41.9416 6.21442 41.2752 4.83012 40.1042C3.44582 38.9331 2.50016 37.3267 2.148 35.548C1.49986 35.2094 0.95693 34.6997 0.578225 34.0742C0.199519 33.4486 -0.000468348 32.7312 8.23613e-07 32V12C8.23613e-07 11.4696 0.210714 10.9609 0.585787 10.5858C0.96086 10.2107 1.46957 10 2 10H16C16.5304 10 17.0391 10.2107 17.4142 10.5858C17.7893 10.9609 18 11.4696 18 12V22C18 22.5304 18.2107 23.0391 18.5858 23.4142C18.9609 23.7893 19.4696 24 20 24H24C24.5304 24 25.0391 23.7893 25.4142 23.4142C25.7893 23.0391 26 22.5304 26 22V4H20V0H28ZM34 30C33.1494 30.0003 32.321 30.2717 31.6351 30.7748C30.9493 31.278 30.4417 31.9867 30.1861 32.798C29.9305 33.6093 29.9401 34.481 30.2137 35.2864C30.4873 36.0919 31.0105 36.7891 31.7074 37.2769C32.4042 37.7647 33.2384 38.0177 34.0889 37.999C34.9393 37.9804 35.7616 37.6911 36.4364 37.1733C37.1112 36.6554 37.6034 35.9359 37.8414 35.1192C38.0794 34.3026 38.0509 33.4313 37.76 32.632L37.726 32.544C37.433 31.7943 36.9207 31.1504 36.2559 30.6966C35.5911 30.2427 34.8049 29.9999 34 30ZM10 30C8.93913 30 7.92172 30.4214 7.17157 31.1716C6.42143 31.9217 6 32.9391 6 34C6 35.0609 6.42143 36.0783 7.17157 36.8284C7.92172 37.5786 8.93913 38 10 38C11.0609 38 12.0783 37.5786 12.8284 36.8284C13.5786 36.0783 14 35.0609 14 34C14 32.9391 13.5786 31.9217 12.8284 31.1716C12.0783 30.4214 11.0609 30 10 30ZM14 14H4V18H14V14ZM36 8H30V12H36V8Z" fill="#0E74D8"/>
</svg>
