<svg width="68" height="68" viewBox="0 0 68 68" fill="none" xmlns="http://www.w3.org/2000/svg">
<path d="M17 8.5C15.5833 8.5 14.45 9.06667 13.6 10.2L9.91667 14.7333C9.06667 15.8667 8.5 17 8.5 18.4167V53.8333C8.5 56.95 11.05 59.5 14.1667 59.5H37.6833C37.1167 57.8 36.8333 55.8167 36.8333 53.8333C36.8333 44.4833 44.4833 36.8333 53.8333 36.8333C55.8167 36.8333 57.8 37.1167 59.5 37.6833V18.4167C59.5 17 58.9333 15.8667 58.0833 14.7333L54.1167 9.91667C53.55 9.06667 52.4167 8.5 51 8.5H17ZM16.7167 11.3333H50.7167L53.2667 14.1667H14.45L16.7167 11.3333ZM17 42.5H34V51H17V42.5ZM60.35 44.7667L50.15 54.9667L45.6167 50.4333L42.5 53.8333L50.4333 62.3333L64.0333 48.7333L60.35 44.7667Z" fill="black"/>
</svg>
