<svg width="68" height="68" viewBox="0 0 68 68" fill="none" xmlns="http://www.w3.org/2000/svg">
<path d="M19.8335 56.6666V53.8333H17.0002C14.6391 53.8333 12.6321 53.0069 10.9793 51.3541C9.32655 49.7013 8.50016 47.6944 8.50016 45.3333V36.8333H2.8335V31.1666H8.50016V22.6666C8.50016 20.3055 9.32655 18.2985 10.9793 16.6458C12.6321 14.993 14.6391 14.1666 17.0002 14.1666H19.8335V11.3333H25.5002V56.6666H19.8335ZM42.5002 56.6666V45.3333H31.1668V39.6666H42.5002V28.3333H31.1668V22.6666H42.5002V11.3333H48.1668V14.1666H51.0002C53.3613 14.1666 55.3682 14.993 57.021 16.6458C58.6738 18.2985 59.5002 20.3055 59.5002 22.6666V31.1666H65.1668V36.8333H59.5002V45.3333C59.5002 47.6944 58.6738 49.7013 57.021 51.3541C55.3682 53.0069 53.3613 53.8333 51.0002 53.8333H48.1668V56.6666H42.5002Z" fill="black"/>
</svg>
