<svg width="40" height="41" viewBox="0 0 40 41" fill="none" xmlns="http://www.w3.org/2000/svg">
<path d="M23.82 2.82L19.66 7H24C28.2435 7 32.3131 8.68571 35.3137 11.6863C38.3143 14.6869 40 18.7565 40 23H36C36 19.8174 34.7357 16.7652 32.4853 14.5147C30.2348 12.2643 27.1826 11 24 11H19.66L23.84 15.18L21 18L12 9L14.82 6.18L21 0L23.82 2.82ZM0 21V41H32V21H0ZM4 34.12V27.9C5.20224 27.2017 6.20175 26.2022 6.9 25H25.1C25.7983 26.2022 26.7978 27.2017 28 27.9V34.12C26.8149 34.8182 25.8299 35.8101 25.14 37H6.9C6.199 35.8051 5.19972 34.8127 4 34.12ZM16 35C17.656 35 19 33.21 19 31C19 28.79 17.656 27 16 27C14.344 27 13 28.79 13 31C13 33.21 14.344 35 16 35Z" fill="#0E74D8"/>
</svg>
